<mxfile host="app.diagrams.net" modified="2024-06-25T20:28:51.567Z" agent="Mozilla/5.0 (Windows NT 10.0; Win64; x64; rv:127.0) Gecko/20100101 Firefox/127.0" etag="3LEyUeIDNQIDdaESA9tp" version="24.6.2" type="github" pages="6">
  <diagram id="C5RBs43oDa-KdzZeNtuy" name="22602">
    <mxGraphModel dx="1290" dy="522" grid="1" gridSize="10" guides="1" tooltips="1" connect="1" arrows="1" fold="1" page="1" pageScale="1" pageWidth="827" pageHeight="1169" math="0" shadow="0">
      <root>
        <mxCell id="WIyWlLk6GJQsqaUBKTNV-0" />
        <mxCell id="WIyWlLk6GJQsqaUBKTNV-1" parent="WIyWlLk6GJQsqaUBKTNV-0" />
        <mxCell id="WIyWlLk6GJQsqaUBKTNV-2" value="" style="rounded=0;html=1;jettySize=auto;orthogonalLoop=1;fontSize=11;endArrow=block;endFill=0;endSize=8;strokeWidth=1;shadow=0;labelBackgroundColor=none;edgeStyle=orthogonalEdgeStyle;" parent="WIyWlLk6GJQsqaUBKTNV-1" source="WIyWlLk6GJQsqaUBKTNV-3" target="WIyWlLk6GJQsqaUBKTNV-6" edge="1">
          <mxGeometry relative="1" as="geometry" />
        </mxCell>
        <mxCell id="WIyWlLk6GJQsqaUBKTNV-3" value="AI Model" style="rounded=1;whiteSpace=wrap;html=1;fontSize=12;glass=0;strokeWidth=1;shadow=0;" parent="WIyWlLk6GJQsqaUBKTNV-1" vertex="1">
          <mxGeometry x="160" y="80" width="120" height="40" as="geometry" />
        </mxCell>
        <mxCell id="WIyWlLk6GJQsqaUBKTNV-4" value="Yes" style="rounded=0;html=1;jettySize=auto;orthogonalLoop=1;fontSize=11;endArrow=block;endFill=0;endSize=8;strokeWidth=1;shadow=0;labelBackgroundColor=none;edgeStyle=orthogonalEdgeStyle;" parent="WIyWlLk6GJQsqaUBKTNV-1" source="WIyWlLk6GJQsqaUBKTNV-6" target="WIyWlLk6GJQsqaUBKTNV-10" edge="1">
          <mxGeometry y="20" relative="1" as="geometry">
            <mxPoint as="offset" />
          </mxGeometry>
        </mxCell>
        <mxCell id="WIyWlLk6GJQsqaUBKTNV-5" value="No" style="edgeStyle=orthogonalEdgeStyle;rounded=0;html=1;jettySize=auto;orthogonalLoop=1;fontSize=11;endArrow=block;endFill=0;endSize=8;strokeWidth=1;shadow=0;labelBackgroundColor=none;" parent="WIyWlLk6GJQsqaUBKTNV-1" source="WIyWlLk6GJQsqaUBKTNV-6" target="WIyWlLk6GJQsqaUBKTNV-7" edge="1">
          <mxGeometry y="10" relative="1" as="geometry">
            <mxPoint as="offset" />
          </mxGeometry>
        </mxCell>
        <mxCell id="WIyWlLk6GJQsqaUBKTNV-6" value="&lt;font style=&quot;font-size: 11px;&quot;&gt;Trained on &amp;gt;10^26 FLOPs&lt;/font&gt;" style="rhombus;whiteSpace=wrap;html=1;shadow=0;fontFamily=Helvetica;fontSize=12;align=center;strokeWidth=1;spacing=6;spacingTop=-6;" parent="WIyWlLk6GJQsqaUBKTNV-1" vertex="1">
          <mxGeometry x="170" y="170" width="100" height="80" as="geometry" />
        </mxCell>
        <mxCell id="WIyWlLk6GJQsqaUBKTNV-7" value="NOT COVERED" style="rounded=1;whiteSpace=wrap;html=1;fontSize=12;glass=0;strokeWidth=1;shadow=0;" parent="WIyWlLk6GJQsqaUBKTNV-1" vertex="1">
          <mxGeometry x="320" y="190" width="120" height="40" as="geometry" />
        </mxCell>
        <mxCell id="WIyWlLk6GJQsqaUBKTNV-8" value="Yes" style="rounded=0;html=1;jettySize=auto;orthogonalLoop=1;fontSize=11;endArrow=block;endFill=0;endSize=8;strokeWidth=1;shadow=0;labelBackgroundColor=none;edgeStyle=orthogonalEdgeStyle;" parent="WIyWlLk6GJQsqaUBKTNV-1" source="WIyWlLk6GJQsqaUBKTNV-10" target="WIyWlLk6GJQsqaUBKTNV-11" edge="1">
          <mxGeometry x="0.3333" y="20" relative="1" as="geometry">
            <mxPoint as="offset" />
          </mxGeometry>
        </mxCell>
        <mxCell id="WIyWlLk6GJQsqaUBKTNV-9" value="No" style="edgeStyle=orthogonalEdgeStyle;rounded=0;html=1;jettySize=auto;orthogonalLoop=1;fontSize=11;endArrow=block;endFill=0;endSize=8;strokeWidth=1;shadow=0;labelBackgroundColor=none;" parent="WIyWlLk6GJQsqaUBKTNV-1" source="WIyWlLk6GJQsqaUBKTNV-10" target="WIyWlLk6GJQsqaUBKTNV-12" edge="1">
          <mxGeometry y="10" relative="1" as="geometry">
            <mxPoint as="offset" />
          </mxGeometry>
        </mxCell>
        <mxCell id="WIyWlLk6GJQsqaUBKTNV-10" value="&lt;font style=&quot;font-size: 11px;&quot;&gt;Training Cost &amp;gt;$100MM&lt;/font&gt;" style="rhombus;whiteSpace=wrap;html=1;shadow=0;fontFamily=Helvetica;fontSize=12;align=center;strokeWidth=1;spacing=6;spacingTop=2;" parent="WIyWlLk6GJQsqaUBKTNV-1" vertex="1">
          <mxGeometry x="170" y="290" width="100" height="80" as="geometry" />
        </mxCell>
        <mxCell id="WIyWlLk6GJQsqaUBKTNV-11" value="Covered Model" style="rounded=1;whiteSpace=wrap;html=1;fontSize=12;glass=0;strokeWidth=1;shadow=0;" parent="WIyWlLk6GJQsqaUBKTNV-1" vertex="1">
          <mxGeometry x="160" y="430" width="120" height="40" as="geometry" />
        </mxCell>
        <mxCell id="WIyWlLk6GJQsqaUBKTNV-12" value="NOT COVERED" style="rounded=1;whiteSpace=wrap;html=1;fontSize=12;glass=0;strokeWidth=1;shadow=0;" parent="WIyWlLk6GJQsqaUBKTNV-1" vertex="1">
          <mxGeometry x="320" y="310" width="120" height="40" as="geometry" />
        </mxCell>
        <mxCell id="lsJyR3Wg0nM14VShBqVX-0" value="" style="rounded=0;html=1;jettySize=auto;orthogonalLoop=1;fontSize=11;endArrow=block;endFill=0;endSize=8;strokeWidth=1;shadow=0;labelBackgroundColor=none;edgeStyle=orthogonalEdgeStyle;" parent="WIyWlLk6GJQsqaUBKTNV-1" source="lsJyR3Wg0nM14VShBqVX-1" target="lsJyR3Wg0nM14VShBqVX-4" edge="1">
          <mxGeometry relative="1" as="geometry" />
        </mxCell>
        <mxCell id="lsJyR3Wg0nM14VShBqVX-1" value="AI Model" style="rounded=1;whiteSpace=wrap;html=1;fontSize=12;glass=0;strokeWidth=1;shadow=0;" parent="WIyWlLk6GJQsqaUBKTNV-1" vertex="1">
          <mxGeometry x="490" y="80" width="120" height="40" as="geometry" />
        </mxCell>
        <mxCell id="lsJyR3Wg0nM14VShBqVX-2" value="No" style="rounded=0;html=1;jettySize=auto;orthogonalLoop=1;fontSize=11;endArrow=block;endFill=0;endSize=8;strokeWidth=1;shadow=0;labelBackgroundColor=none;edgeStyle=orthogonalEdgeStyle;" parent="WIyWlLk6GJQsqaUBKTNV-1" source="lsJyR3Wg0nM14VShBqVX-4" target="lsJyR3Wg0nM14VShBqVX-8" edge="1">
          <mxGeometry y="20" relative="1" as="geometry">
            <mxPoint as="offset" />
          </mxGeometry>
        </mxCell>
        <mxCell id="lsJyR3Wg0nM14VShBqVX-3" value="Yes" style="edgeStyle=orthogonalEdgeStyle;rounded=0;html=1;jettySize=auto;orthogonalLoop=1;fontSize=11;endArrow=block;endFill=0;endSize=8;strokeWidth=1;shadow=0;labelBackgroundColor=none;" parent="WIyWlLk6GJQsqaUBKTNV-1" source="lsJyR3Wg0nM14VShBqVX-4" target="lsJyR3Wg0nM14VShBqVX-5" edge="1">
          <mxGeometry y="10" relative="1" as="geometry">
            <mxPoint as="offset" />
          </mxGeometry>
        </mxCell>
        <mxCell id="lsJyR3Wg0nM14VShBqVX-4" value="&lt;font style=&quot;font-size: 11px;&quot;&gt;Entirely Independently Trained&lt;/font&gt;" style="rhombus;whiteSpace=wrap;html=1;shadow=0;fontFamily=Helvetica;fontSize=12;align=center;strokeWidth=1;spacing=6;spacingTop=-4;" parent="WIyWlLk6GJQsqaUBKTNV-1" vertex="1">
          <mxGeometry x="500" y="170" width="100" height="80" as="geometry" />
        </mxCell>
        <mxCell id="lsJyR3Wg0nM14VShBqVX-5" value="NOT DERIVATIVE" style="rounded=1;whiteSpace=wrap;html=1;fontSize=12;glass=0;strokeWidth=1;shadow=0;" parent="WIyWlLk6GJQsqaUBKTNV-1" vertex="1">
          <mxGeometry x="650" y="190" width="120" height="40" as="geometry" />
        </mxCell>
        <mxCell id="lsJyR3Wg0nM14VShBqVX-6" value="No" style="rounded=0;html=1;jettySize=auto;orthogonalLoop=1;fontSize=11;endArrow=block;endFill=0;endSize=8;strokeWidth=1;shadow=0;labelBackgroundColor=none;edgeStyle=orthogonalEdgeStyle;" parent="WIyWlLk6GJQsqaUBKTNV-1" source="lsJyR3Wg0nM14VShBqVX-8" target="lsJyR3Wg0nM14VShBqVX-9" edge="1">
          <mxGeometry x="0.3333" y="20" relative="1" as="geometry">
            <mxPoint as="offset" />
          </mxGeometry>
        </mxCell>
        <mxCell id="lsJyR3Wg0nM14VShBqVX-7" value="Yes" style="edgeStyle=orthogonalEdgeStyle;rounded=0;html=1;jettySize=auto;orthogonalLoop=1;fontSize=11;endArrow=block;endFill=0;endSize=8;strokeWidth=1;shadow=0;labelBackgroundColor=none;" parent="WIyWlLk6GJQsqaUBKTNV-1" source="lsJyR3Wg0nM14VShBqVX-8" target="lsJyR3Wg0nM14VShBqVX-10" edge="1">
          <mxGeometry y="10" relative="1" as="geometry">
            <mxPoint as="offset" />
          </mxGeometry>
        </mxCell>
        <mxCell id="lsJyR3Wg0nM14VShBqVX-8" value="&lt;font style=&quot;font-size: 9px;&quot;&gt;Fine&amp;nbsp;&lt;/font&gt;&lt;div&gt;&lt;font style=&quot;font-size: 9px;&quot;&gt;Tuned with&lt;/font&gt;&lt;div&gt;&lt;font style=&quot;font-size: 9px;&quot;&gt;&amp;gt;25% FLOPs of Original Model&amp;nbsp;&lt;/font&gt;&lt;/div&gt;&lt;/div&gt;" style="rhombus;whiteSpace=wrap;html=1;shadow=0;fontFamily=Helvetica;fontSize=12;align=center;strokeWidth=1;spacing=6;spacingTop=-10;" parent="WIyWlLk6GJQsqaUBKTNV-1" vertex="1">
          <mxGeometry x="490" y="285" width="120" height="90" as="geometry" />
        </mxCell>
        <mxCell id="lsJyR3Wg0nM14VShBqVX-9" value="Derivative Model" style="rounded=1;whiteSpace=wrap;html=1;fontSize=12;glass=0;strokeWidth=1;shadow=0;" parent="WIyWlLk6GJQsqaUBKTNV-1" vertex="1">
          <mxGeometry x="490" y="430" width="120" height="40" as="geometry" />
        </mxCell>
        <mxCell id="lsJyR3Wg0nM14VShBqVX-10" value="NOT DERIVATIVE" style="rounded=1;whiteSpace=wrap;html=1;fontSize=12;glass=0;strokeWidth=1;shadow=0;" parent="WIyWlLk6GJQsqaUBKTNV-1" vertex="1">
          <mxGeometry x="650" y="310" width="120" height="40" as="geometry" />
        </mxCell>
      </root>
    </mxGraphModel>
  </diagram>
  <diagram id="eh5qC0OMtD47MLs5pBxJ" name="22603(a)">
    <mxGraphModel dx="1290" dy="522" grid="1" gridSize="10" guides="1" tooltips="1" connect="1" arrows="1" fold="1" page="1" pageScale="1" pageWidth="850" pageHeight="1100" math="1" shadow="0">
      <root>
        <mxCell id="0" />
        <mxCell id="1" parent="0" />
        <mxCell id="Hn0iShwKN7-sHJlZEDqD-1" value="(a) Does Limited Duty Exemption Apply?&lt;div&gt;&amp;nbsp; &amp;nbsp; &amp;nbsp;Before training &lt;font color=&quot;#ff0000&quot;&gt;Covered Model&lt;/font&gt;&amp;nbsp;that is not a DM ...&lt;/div&gt;" style="text;strokeColor=none;align=left;fillColor=none;html=1;verticalAlign=middle;whiteSpace=wrap;rounded=0;" parent="1" vertex="1">
          <mxGeometry x="245" y="20" width="295" height="30" as="geometry" />
        </mxCell>
        <mxCell id="ZTIk_XsdjdtVn8a1Mj-c-1" value="" style="rounded=0;html=1;jettySize=auto;orthogonalLoop=1;fontSize=11;endArrow=block;endFill=0;endSize=8;strokeWidth=1;shadow=0;labelBackgroundColor=none;edgeStyle=orthogonalEdgeStyle;entryX=0.5;entryY=0;entryDx=0;entryDy=0;" parent="1" source="ZTIk_XsdjdtVn8a1Mj-c-2" target="ZTIk_XsdjdtVn8a1Mj-c-12" edge="1">
          <mxGeometry relative="1" as="geometry">
            <mxPoint x="360" y="175" as="targetPoint" />
          </mxGeometry>
        </mxCell>
        <mxCell id="ZTIk_XsdjdtVn8a1Mj-c-2" value="Covered Model" style="rounded=1;whiteSpace=wrap;html=1;fontSize=12;glass=0;strokeWidth=1;shadow=0;" parent="1" vertex="1">
          <mxGeometry x="300" y="90" width="120" height="40" as="geometry" />
        </mxCell>
        <mxCell id="ZTIk_XsdjdtVn8a1Mj-c-3" value="Yes" style="rounded=0;html=1;jettySize=auto;orthogonalLoop=1;fontSize=11;endArrow=block;endFill=0;endSize=8;strokeWidth=1;shadow=0;labelBackgroundColor=none;edgeStyle=orthogonalEdgeStyle;" parent="1" source="ZTIk_XsdjdtVn8a1Mj-c-5" target="ZTIk_XsdjdtVn8a1Mj-c-9" edge="1">
          <mxGeometry y="20" relative="1" as="geometry">
            <mxPoint as="offset" />
          </mxGeometry>
        </mxCell>
        <mxCell id="ZTIk_XsdjdtVn8a1Mj-c-4" value="No" style="edgeStyle=orthogonalEdgeStyle;rounded=0;html=1;jettySize=auto;orthogonalLoop=1;fontSize=11;endArrow=block;endFill=0;endSize=8;strokeWidth=1;shadow=0;labelBackgroundColor=none;" parent="1" source="ZTIk_XsdjdtVn8a1Mj-c-5" target="ZTIk_XsdjdtVn8a1Mj-c-6" edge="1">
          <mxGeometry y="10" relative="1" as="geometry">
            <mxPoint as="offset" />
          </mxGeometry>
        </mxCell>
        <mxCell id="ZTIk_XsdjdtVn8a1Mj-c-5" value="&lt;font style=&quot;font-size: 11px;&quot;&gt;Lower&lt;/font&gt;&lt;div&gt;&lt;font style=&quot;font-size: 11px;&quot;&gt;performance on 22602(f)&lt;/font&gt;&lt;/div&gt;&lt;div&gt;&lt;font style=&quot;font-size: 11px;&quot;&gt;benchmarks&lt;/font&gt;&lt;/div&gt;&lt;div&gt;&lt;font style=&quot;font-size: 11px;&quot;&gt;[removed?]&lt;/font&gt;&lt;/div&gt;" style="rhombus;whiteSpace=wrap;html=1;shadow=0;fontFamily=Helvetica;fontSize=12;align=center;strokeWidth=1;spacing=6;spacingTop=-6;" parent="1" vertex="1">
          <mxGeometry x="250" y="260" width="220" height="110" as="geometry" />
        </mxCell>
        <mxCell id="ZTIk_XsdjdtVn8a1Mj-c-6" value="No LDE" style="rounded=1;whiteSpace=wrap;html=1;fontSize=12;glass=0;strokeWidth=1;shadow=0;" parent="1" vertex="1">
          <mxGeometry x="540" y="295" width="120" height="40" as="geometry" />
        </mxCell>
        <mxCell id="ZTIk_XsdjdtVn8a1Mj-c-7" value="Yes" style="rounded=0;html=1;jettySize=auto;orthogonalLoop=1;fontSize=11;endArrow=block;endFill=0;endSize=8;strokeWidth=1;shadow=0;labelBackgroundColor=none;edgeStyle=orthogonalEdgeStyle;entryX=0.5;entryY=0;entryDx=0;entryDy=0;" parent="1" source="ZTIk_XsdjdtVn8a1Mj-c-9" target="ZTIk_XsdjdtVn8a1Mj-c-22" edge="1">
          <mxGeometry x="0.3333" y="20" relative="1" as="geometry">
            <mxPoint as="offset" />
            <mxPoint x="360" y="550" as="targetPoint" />
          </mxGeometry>
        </mxCell>
        <mxCell id="ZTIk_XsdjdtVn8a1Mj-c-8" value="No" style="edgeStyle=orthogonalEdgeStyle;rounded=0;html=1;jettySize=auto;orthogonalLoop=1;fontSize=11;endArrow=block;endFill=0;endSize=8;strokeWidth=1;shadow=0;labelBackgroundColor=none;" parent="1" source="ZTIk_XsdjdtVn8a1Mj-c-9" target="ZTIk_XsdjdtVn8a1Mj-c-11" edge="1">
          <mxGeometry y="10" relative="1" as="geometry">
            <mxPoint as="offset" />
          </mxGeometry>
        </mxCell>
        <mxCell id="ZTIk_XsdjdtVn8a1Mj-c-9" value="" style="rhombus;whiteSpace=wrap;html=1;shadow=0;fontFamily=Helvetica;fontSize=12;align=center;strokeWidth=1;spacing=6;spacingTop=2;" parent="1" vertex="1">
          <mxGeometry x="220" y="410" width="280" height="120" as="geometry" />
        </mxCell>
        <mxCell id="ZTIk_XsdjdtVn8a1Mj-c-11" value="No LDE" style="rounded=1;whiteSpace=wrap;html=1;fontSize=12;glass=0;strokeWidth=1;shadow=0;" parent="1" vertex="1">
          <mxGeometry x="540" y="450" width="120" height="40" as="geometry" />
        </mxCell>
        <mxCell id="ZTIk_XsdjdtVn8a1Mj-c-12" value="(1) Use &quot;covered guidance&quot;&lt;div&gt;NIST + FMD&lt;/div&gt;&lt;div&gt;Industry best practices/comparable testing&lt;/div&gt;" style="rounded=1;whiteSpace=wrap;html=1;fontSize=12;glass=0;strokeWidth=1;shadow=0;" parent="1" vertex="1">
          <mxGeometry x="235" y="170" width="250" height="50" as="geometry" />
        </mxCell>
        <mxCell id="ZTIk_XsdjdtVn8a1Mj-c-14" value="Model developer &lt;b style=&quot;&quot;&gt;may&lt;/b&gt; use the following criteria to determnine if LDE applies&quot;" style="text;strokeColor=none;align=center;fillColor=none;html=1;verticalAlign=middle;whiteSpace=wrap;rounded=0;" parent="1" vertex="1">
          <mxGeometry x="220" y="60" width="295" height="30" as="geometry" />
        </mxCell>
        <mxCell id="ZTIk_XsdjdtVn8a1Mj-c-16" value="general&lt;div&gt;capability&lt;/div&gt;" style="text;html=1;align=center;verticalAlign=middle;whiteSpace=wrap;rounded=0;" parent="1" vertex="1">
          <mxGeometry x="260" y="455" width="60" height="30" as="geometry" />
        </mxCell>
        <mxCell id="ZTIk_XsdjdtVn8a1Mj-c-18" value="&lt;br&gt;&lt;span style=&quot;color: rgb(0, 0, 0); font-family: Helvetica; font-size: 11px; font-style: normal; font-variant-ligatures: normal; font-variant-caps: normal; font-weight: 400; letter-spacing: normal; orphans: 2; text-align: center; text-indent: 0px; text-transform: none; widows: 2; word-spacing: 0px; -webkit-text-stroke-width: 0px; white-space: normal; background-color: rgb(251, 251, 251); text-decoration-thickness: initial; text-decoration-style: initial; text-decoration-color: initial; display: inline !important; float: none;&quot;&gt;noncovered model that lacks HC&lt;/span&gt;&lt;div&gt;&lt;br&gt;&lt;/div&gt;" style="text;html=1;align=center;verticalAlign=middle;whiteSpace=wrap;rounded=0;" parent="1" vertex="1">
          <mxGeometry x="360" y="455" width="90" height="30" as="geometry" />
        </mxCell>
        <mxCell id="ZTIk_XsdjdtVn8a1Mj-c-19" value="&lt;br style=&quot;font-size: 21px;&quot;&gt;\(\leq\)&lt;div style=&quot;font-size: 21px;&quot;&gt;&lt;br style=&quot;font-size: 21px;&quot;&gt;&lt;/div&gt;" style="text;html=1;align=center;verticalAlign=middle;whiteSpace=wrap;rounded=0;fontSize=21;" parent="1" vertex="1">
          <mxGeometry x="310" y="455" width="60" height="30" as="geometry" />
        </mxCell>
        <mxCell id="ZTIk_XsdjdtVn8a1Mj-c-20" value="Yes" style="rounded=0;html=1;jettySize=auto;orthogonalLoop=1;fontSize=11;endArrow=block;endFill=0;endSize=8;strokeWidth=1;shadow=0;labelBackgroundColor=none;edgeStyle=orthogonalEdgeStyle;" parent="1" source="ZTIk_XsdjdtVn8a1Mj-c-22" target="ZTIk_XsdjdtVn8a1Mj-c-23" edge="1">
          <mxGeometry x="0.3333" y="20" relative="1" as="geometry">
            <mxPoint as="offset" />
          </mxGeometry>
        </mxCell>
        <mxCell id="ZTIk_XsdjdtVn8a1Mj-c-21" value="No" style="edgeStyle=orthogonalEdgeStyle;rounded=0;html=1;jettySize=auto;orthogonalLoop=1;fontSize=11;endArrow=block;endFill=0;endSize=8;strokeWidth=1;shadow=0;labelBackgroundColor=none;" parent="1" source="ZTIk_XsdjdtVn8a1Mj-c-22" target="ZTIk_XsdjdtVn8a1Mj-c-24" edge="1">
          <mxGeometry y="10" relative="1" as="geometry">
            <mxPoint as="offset" />
          </mxGeometry>
        </mxCell>
        <mxCell id="ZTIk_XsdjdtVn8a1Mj-c-22" value="" style="rhombus;whiteSpace=wrap;html=1;shadow=0;fontFamily=Helvetica;fontSize=12;align=center;strokeWidth=1;spacing=6;spacingTop=2;" parent="1" vertex="1">
          <mxGeometry x="220" y="570" width="280" height="120" as="geometry" />
        </mxCell>
        <mxCell id="ZTIk_XsdjdtVn8a1Mj-c-23" value="LDE" style="rounded=1;whiteSpace=wrap;html=1;fontSize=12;glass=0;strokeWidth=1;shadow=0;" parent="1" vertex="1">
          <mxGeometry x="290" y="720" width="140" height="40" as="geometry" />
        </mxCell>
        <mxCell id="ZTIk_XsdjdtVn8a1Mj-c-24" value="No LDE" style="rounded=1;whiteSpace=wrap;html=1;fontSize=12;glass=0;strokeWidth=1;shadow=0;" parent="1" vertex="1">
          <mxGeometry x="540" y="610" width="120" height="40" as="geometry" />
        </mxCell>
        <mxCell id="ZTIk_XsdjdtVn8a1Mj-c-25" value="general&lt;div&gt;capability&lt;/div&gt;" style="text;html=1;align=center;verticalAlign=middle;whiteSpace=wrap;rounded=0;" parent="1" vertex="1">
          <mxGeometry x="260" y="615" width="60" height="30" as="geometry" />
        </mxCell>
        <mxCell id="ZTIk_XsdjdtVn8a1Mj-c-26" value="other limited duty model" style="text;html=1;align=center;verticalAlign=middle;whiteSpace=wrap;rounded=0;" parent="1" vertex="1">
          <mxGeometry x="360" y="615" width="90" height="30" as="geometry" />
        </mxCell>
        <mxCell id="ZTIk_XsdjdtVn8a1Mj-c-27" value="&lt;br style=&quot;font-size: 21px;&quot;&gt;\(\leq\)&lt;div style=&quot;font-size: 21px;&quot;&gt;&lt;br style=&quot;font-size: 21px;&quot;&gt;&lt;/div&gt;" style="text;html=1;align=center;verticalAlign=middle;whiteSpace=wrap;rounded=0;fontSize=21;" parent="1" vertex="1">
          <mxGeometry x="310" y="615" width="60" height="30" as="geometry" />
        </mxCell>
        <mxCell id="ZTIk_XsdjdtVn8a1Mj-c-29" value="Submit certification to FMD&lt;div&gt;(good-faith error is OK)&lt;/div&gt;" style="rounded=1;whiteSpace=wrap;html=1;fontSize=12;glass=0;strokeWidth=1;shadow=0;" parent="1" vertex="1">
          <mxGeometry x="280" y="790" width="160" height="40" as="geometry" />
        </mxCell>
        <mxCell id="ZTIk_XsdjdtVn8a1Mj-c-30" value="" style="rounded=0;html=1;jettySize=auto;orthogonalLoop=1;fontSize=11;endArrow=block;endFill=0;endSize=8;strokeWidth=1;shadow=0;labelBackgroundColor=none;edgeStyle=orthogonalEdgeStyle;exitX=0.5;exitY=1;exitDx=0;exitDy=0;entryX=0.5;entryY=0;entryDx=0;entryDy=0;" parent="1" source="ZTIk_XsdjdtVn8a1Mj-c-23" target="ZTIk_XsdjdtVn8a1Mj-c-29" edge="1">
          <mxGeometry x="0.3333" y="20" relative="1" as="geometry">
            <mxPoint as="offset" />
            <mxPoint x="370" y="700" as="sourcePoint" />
            <mxPoint x="370" y="730" as="targetPoint" />
          </mxGeometry>
        </mxCell>
        <mxCell id="hc3DXV7Tvl_5bUN_IKK4-1" value="Yes" style="rounded=0;html=1;jettySize=auto;orthogonalLoop=1;fontSize=11;endArrow=block;endFill=0;endSize=8;strokeWidth=1;shadow=0;labelBackgroundColor=none;edgeStyle=orthogonalEdgeStyle;exitX=0.5;exitY=1;exitDx=0;exitDy=0;" parent="1" source="ZTIk_XsdjdtVn8a1Mj-c-12" edge="1">
          <mxGeometry x="0.0122" y="20" relative="1" as="geometry">
            <mxPoint y="-1" as="offset" />
            <mxPoint x="370" y="380" as="sourcePoint" />
            <mxPoint x="360" y="260" as="targetPoint" />
          </mxGeometry>
        </mxCell>
        <mxCell id="3ihdfoWfnJZPWu12yb5W-1" value="&lt;div&gt;&amp;nbsp; CH = Critical Harm&lt;/div&gt;&lt;div&gt;&amp;nbsp; CM = Covered Model&lt;/div&gt;&lt;div&gt;&amp;nbsp; DM = Derivative Model&lt;/div&gt;FMD =&amp;nbsp;&lt;span style=&quot;&quot;&gt;Frontier Model Division&lt;/span&gt;&lt;div&gt;&amp;nbsp; &amp;nbsp;FT = Fine Tuning&lt;/div&gt;&lt;div&gt;&amp;nbsp; HC = Hazardous Capability&lt;br&gt;&lt;div&gt;&amp;nbsp;LDE = Limited Duty Exemption&lt;span style=&quot;&quot;&gt;&lt;br&gt;&lt;/span&gt;&lt;/div&gt;&lt;div&gt;&lt;span style=&quot;&quot;&gt;NIST =&amp;nbsp;&lt;/span&gt;&lt;span style=&quot;background-color: initial;&quot;&gt;National Institute of&lt;/span&gt;&lt;/div&gt;&lt;div&gt;&lt;span style=&quot;background-color: initial;&quot;&gt;&amp;nbsp; &amp;nbsp; &amp;nbsp; &amp;nbsp; &amp;nbsp; &amp;nbsp; Standards and&lt;/span&gt;&lt;/div&gt;&lt;div&gt;&lt;span style=&quot;background-color: initial;&quot;&gt;&amp;nbsp; &amp;nbsp; &amp;nbsp; &amp;nbsp; &amp;nbsp; &amp;nbsp; Technology&lt;/span&gt;&lt;/div&gt;&lt;div&gt;&lt;span style=&quot;background-color: initial;&quot;&gt;PTM = Posttraining Modifications&lt;/span&gt;&lt;/div&gt;&lt;div&gt;&lt;span style=&quot;background-color: initial;&quot;&gt;SSP = Safety and Security Protocol&lt;br&gt;&lt;/span&gt;&lt;/div&gt;&lt;div&gt;&lt;span style=&quot;background-color: initial;&quot;&gt;&amp;nbsp;&amp;nbsp; TP = Testing Procedure&lt;br&gt;&lt;/span&gt;&lt;/div&gt;&lt;div&gt;&lt;br&gt;&lt;/div&gt;&lt;/div&gt;" style="text;html=1;align=left;verticalAlign=middle;whiteSpace=wrap;rounded=0;" parent="1" vertex="1">
          <mxGeometry x="20" y="90" width="200" height="170" as="geometry" />
        </mxCell>
      </root>
    </mxGraphModel>
  </diagram>
  <diagram name="22603(b)" id="qdWuGC7MhuZQAb6KF17o">
    <mxGraphModel dx="1502" dy="522" grid="1" gridSize="10" guides="1" tooltips="1" connect="1" arrows="1" fold="1" page="1" pageScale="1" pageWidth="850" pageHeight="1100" math="1" shadow="0">
      <root>
        <mxCell id="K0Vo0GqA2gB-A2LjvXNX-0" />
        <mxCell id="K0Vo0GqA2gB-A2LjvXNX-1" parent="K0Vo0GqA2gB-A2LjvXNX-0" />
        <mxCell id="K0Vo0GqA2gB-A2LjvXNX-2" value="(b)&amp;nbsp;&lt;span style=&quot;background-color: initial;&quot;&gt;Before training &lt;/span&gt;&lt;font color=&quot;#ff0000&quot; style=&quot;background-color: initial;&quot;&gt;Covered Model&lt;/font&gt;&lt;span style=&quot;background-color: initial;&quot;&gt;&amp;nbsp;that is not DM and not LDE and until LDE ...&lt;/span&gt;" style="text;strokeColor=none;align=left;fillColor=none;html=1;verticalAlign=middle;whiteSpace=wrap;rounded=0;" parent="K0Vo0GqA2gB-A2LjvXNX-1" vertex="1">
          <mxGeometry x="282" y="20" width="310" height="30" as="geometry" />
        </mxCell>
        <mxCell id="K0Vo0GqA2gB-A2LjvXNX-4" value="&lt;div&gt;&lt;font style=&quot;font-size: 11px;&quot;&gt;1. pretraining protocols prevent unresonable risk of harmful model&lt;/font&gt;&lt;/div&gt;&lt;div&gt;&lt;font style=&quot;font-size: 11px;&quot;&gt;2. docuemnt protocols so they can be assessed&lt;/font&gt;&lt;/div&gt;&lt;div&gt;&lt;font style=&quot;font-size: 11px;&quot;&gt;3. file protocols with governemnt&lt;br&gt;&lt;/font&gt;&lt;/div&gt;" style="rounded=1;whiteSpace=wrap;html=1;fontSize=11;glass=0;strokeWidth=1;shadow=0;align=left;spacingLeft=5;" parent="K0Vo0GqA2gB-A2LjvXNX-1" vertex="1">
          <mxGeometry x="207" y="90" width="460" height="100" as="geometry" />
        </mxCell>
        <mxCell id="K0Vo0GqA2gB-A2LjvXNX-15" value="Model developer &lt;b&gt;shall:&lt;/b&gt;" style="text;strokeColor=none;align=left;fillColor=none;html=1;verticalAlign=middle;whiteSpace=wrap;rounded=0;" parent="K0Vo0GqA2gB-A2LjvXNX-1" vertex="1">
          <mxGeometry x="289.5" y="60" width="295" height="30" as="geometry" />
        </mxCell>
        <mxCell id="hoztp4ZJl7xUtryUVv4R-0" value="&lt;div&gt;&amp;nbsp; CH = Critical Harm&lt;/div&gt;&lt;div&gt;&amp;nbsp; CM = Covered Model&lt;/div&gt;&lt;div&gt;&amp;nbsp; DM = Derivative Model&lt;/div&gt;FMD =&amp;nbsp;&lt;span style=&quot;&quot;&gt;Frontier Model Division&lt;/span&gt;&lt;div&gt;&amp;nbsp; &amp;nbsp;FT = Fine Tuning&lt;/div&gt;&lt;div&gt;&amp;nbsp; HC = Hazardous Capability&lt;br&gt;&lt;div&gt;&amp;nbsp;LDE = Limited Duty Exemption&lt;span style=&quot;&quot;&gt;&lt;br&gt;&lt;/span&gt;&lt;/div&gt;&lt;div&gt;&lt;span style=&quot;&quot;&gt;NIST =&amp;nbsp;&lt;/span&gt;&lt;span style=&quot;background-color: initial;&quot;&gt;National Institute of&lt;/span&gt;&lt;/div&gt;&lt;div&gt;&lt;span style=&quot;background-color: initial;&quot;&gt;&amp;nbsp; &amp;nbsp; &amp;nbsp; &amp;nbsp; &amp;nbsp; &amp;nbsp; Standards and&lt;/span&gt;&lt;/div&gt;&lt;div&gt;&lt;span style=&quot;background-color: initial;&quot;&gt;&amp;nbsp; &amp;nbsp; &amp;nbsp; &amp;nbsp; &amp;nbsp; &amp;nbsp; Technology&lt;/span&gt;&lt;/div&gt;&lt;div&gt;&lt;span style=&quot;background-color: initial;&quot;&gt;PTM = Posttraining Modifications&lt;/span&gt;&lt;/div&gt;&lt;div&gt;&lt;span style=&quot;background-color: initial;&quot;&gt;SSP = Safety and Security Protocol&lt;br&gt;&lt;/span&gt;&lt;/div&gt;&lt;div&gt;&lt;span style=&quot;background-color: initial;&quot;&gt;&amp;nbsp;&amp;nbsp; TP = Testing Procedure&lt;br&gt;&lt;/span&gt;&lt;/div&gt;&lt;div&gt;&lt;br&gt;&lt;/div&gt;&lt;/div&gt;" style="text;html=1;align=left;verticalAlign=middle;whiteSpace=wrap;rounded=0;" parent="K0Vo0GqA2gB-A2LjvXNX-1" vertex="1">
          <mxGeometry x="20" y="90" width="200" height="170" as="geometry" />
        </mxCell>
      </root>
    </mxGraphModel>
  </diagram>
  <diagram name="Detailed 22603(b)" id="aqaMs32a6D-P95Sz5VV9">
    <mxGraphModel dx="1290" dy="522" grid="1" gridSize="10" guides="1" tooltips="1" connect="1" arrows="1" fold="1" page="1" pageScale="1" pageWidth="850" pageHeight="1100" math="1" shadow="0">
      <root>
        <mxCell id="N9-NrV2kkBsD0lLzIItE-0" />
        <mxCell id="N9-NrV2kkBsD0lLzIItE-1" parent="N9-NrV2kkBsD0lLzIItE-0" />
        <mxCell id="N9-NrV2kkBsD0lLzIItE-2" value="(b)&amp;nbsp;&lt;span style=&quot;background-color: initial;&quot;&gt;Before training &lt;/span&gt;&lt;font color=&quot;#ff0000&quot; style=&quot;background-color: initial;&quot;&gt;Covered Model&lt;/font&gt;&lt;span style=&quot;background-color: initial;&quot;&gt;&amp;nbsp;that is not DM and not LDE and until LDE ...&lt;/span&gt;" style="text;strokeColor=none;align=left;fillColor=none;html=1;verticalAlign=middle;whiteSpace=wrap;rounded=0;" parent="N9-NrV2kkBsD0lLzIItE-1" vertex="1">
          <mxGeometry x="282" y="20" width="310" height="30" as="geometry" />
        </mxCell>
        <mxCell id="N9-NrV2kkBsD0lLzIItE-3" value="&lt;font style=&quot;font-size: 11px;&quot;&gt;1. Implement protections to prevent unauthorized access to, or misuse or unsafe modification of CM, to prevent theft, misappropriation, malicious use, or inadvertent release or escape of the model weights from the developer’s custody, &lt;b&gt;that are appropriate in light of the risks associated with the covered model&lt;/b&gt;, including from advanced persistent threats or other sophisticated actors&lt;/font&gt;" style="rounded=1;whiteSpace=wrap;html=1;fontSize=11;glass=0;strokeWidth=1;shadow=0;align=left;spacingLeft=5;" parent="N9-NrV2kkBsD0lLzIItE-1" vertex="1">
          <mxGeometry x="207" y="90" width="460" height="100" as="geometry" />
        </mxCell>
        <mxCell id="N9-NrV2kkBsD0lLzIItE-4" value="2. Implement the capability to promptly enact a &lt;b&gt;full shutdown&lt;/b&gt; of the CM" style="rounded=1;whiteSpace=wrap;html=1;fontSize=12;glass=0;strokeWidth=1;shadow=0;align=left;spacingLeft=5;" parent="N9-NrV2kkBsD0lLzIItE-1" vertex="1">
          <mxGeometry x="312" y="216" width="250" height="50" as="geometry" />
        </mxCell>
        <mxCell id="N9-NrV2kkBsD0lLzIItE-5" value="Model developer &lt;b&gt;shall:&lt;/b&gt;" style="text;strokeColor=none;align=left;fillColor=none;html=1;verticalAlign=middle;whiteSpace=wrap;rounded=0;" parent="N9-NrV2kkBsD0lLzIItE-1" vertex="1">
          <mxGeometry x="289.5" y="60" width="295" height="30" as="geometry" />
        </mxCell>
        <mxCell id="N9-NrV2kkBsD0lLzIItE-6" value="3. Implement all covered guidance" style="rounded=1;whiteSpace=wrap;html=1;fontSize=12;glass=0;strokeWidth=1;shadow=0;align=left;spacingLeft=5;" parent="N9-NrV2kkBsD0lLzIItE-1" vertex="1">
          <mxGeometry x="312" y="607" width="250" height="50" as="geometry" />
        </mxCell>
        <mxCell id="N9-NrV2kkBsD0lLzIItE-7" value="4. Implement protocol that provides all of the following:&lt;div&gt;&lt;span style=&quot;background-color: initial;&quot;&gt;&amp;nbsp; A.&amp;nbsp; &lt;b&gt;Reasonable &lt;/b&gt;assurance that if protocols complied with. either:&lt;/span&gt;&lt;div&gt;&lt;span style=&quot;white-space: pre;&quot;&gt;&#x9;&lt;/span&gt;i. CM will not have HC or enable DM with HC, or&lt;br&gt;&lt;/div&gt;&lt;/div&gt;&lt;div&gt;&amp;nbsp; &amp;nbsp; &amp;nbsp; &amp;nbsp;ii. protocol sufficient to prevent &lt;b&gt;unreasonable &lt;/b&gt;risk of CH from the exercise of the HC&lt;/div&gt;&lt;div&gt;&amp;nbsp;B. Objectively verifiable compliance requirements&lt;/div&gt;&lt;div&gt;&amp;nbsp;C.&amp;nbsp;&lt;span style=&quot;background-color: initial;&quot;&gt;&amp;nbsp;Identifies tests and results sufficient to provide &lt;b&gt;reasonable &lt;/b&gt;assurance &lt;/span&gt;&lt;span style=&quot;background-color: initial;&quot;&gt;that CM do not have HC or close to HC when accounting for &lt;/span&gt;&lt;span style=&quot;background-color: initial;&quot;&gt;&lt;b&gt;reasonable &lt;/b&gt;safety margin and PTM, and in addition describes in detail all of the following:&lt;/span&gt;&lt;/div&gt;&lt;div&gt;&lt;span style=&quot;background-color: initial;&quot;&gt;&amp;nbsp;&amp;nbsp;&amp;nbsp;&amp;nbsp; i. how TP incorporates FT and PTM performed by 3rd part experts demonstrating those abilities&lt;br&gt;&lt;/span&gt;&lt;/div&gt;&lt;div&gt;&lt;span style=&quot;background-color: initial;&quot;&gt;&amp;nbsp; &amp;nbsp;&amp;nbsp; ii. &lt;/span&gt;&lt;span style=&quot;background-color: initial;&quot;&gt;how TP &lt;/span&gt;&lt;span style=&quot;background-color: initial;&quot;&gt;incorporates possibility of PTM&lt;/span&gt;&lt;/div&gt;&lt;div&gt;&lt;span style=&quot;background-color: initial;&quot;&gt;&amp;nbsp;&amp;nbsp;&amp;nbsp; iii. &lt;/span&gt;&lt;span style=&quot;background-color: initial;&quot;&gt;how TP &lt;/span&gt;&lt;span style=&quot;background-color: initial;&quot;&gt;incorporates requirement for &lt;b&gt;reasonable &lt;/b&gt;safety margin&lt;br&gt;&lt;/span&gt;&lt;/div&gt;&lt;div&gt;&lt;span style=&quot;background-color: initial;&quot;&gt;&amp;nbsp;&amp;nbsp;&amp;nbsp; iv. &lt;/span&gt;&lt;span style=&quot;background-color: initial;&quot;&gt;how TP &lt;/span&gt;&lt;span style=&quot;background-color: initial;&quot;&gt;addresses possibility CM used to make PTM or create another CM that generates HC&lt;/span&gt;&lt;/div&gt;&lt;div&gt;&lt;span style=&quot;background-color: initial;&quot;&gt;&amp;nbsp;&amp;nbsp;&amp;nbsp;&amp;nbsp; v. provides sufficient detail for 3rd party to replicate TP&lt;/span&gt;&lt;/div&gt;&lt;div&gt;&lt;span style=&quot;background-color: initial;&quot;&gt;D. Describe in detail how (1), (2), (3), and (5) are met.&lt;/span&gt;&lt;/div&gt;&lt;div&gt;&lt;span style=&quot;background-color: initial;&quot;&gt;E. if applicable, describe how to implement (1)(d)&lt;/span&gt;&lt;/div&gt;&lt;div&gt;&lt;span style=&quot;background-color: initial;&quot;&gt;F. Describe conditions the require full shutdown&lt;/span&gt;&lt;/div&gt;&lt;div&gt;&lt;span style=&quot;background-color: initial;&quot;&gt;G. Describe SSP modification procedures&lt;/span&gt;&lt;/div&gt;&lt;div&gt;&lt;span style=&quot;background-color: initial;&quot;&gt;H. Meets FDM guidance for maintaining safety of CM with HC&lt;br&gt;&lt;/span&gt;&lt;/div&gt;" style="rounded=1;whiteSpace=wrap;html=1;fontSize=11;glass=0;strokeWidth=1;shadow=0;align=left;spacingLeft=5;" parent="N9-NrV2kkBsD0lLzIItE-1" vertex="1">
          <mxGeometry x="122" y="291" width="630" height="290" as="geometry" />
        </mxCell>
        <mxCell id="N9-NrV2kkBsD0lLzIItE-8" value="&lt;div&gt;&amp;nbsp; CH = Critical Harm&lt;/div&gt;&lt;div&gt;&amp;nbsp; CM = Covered Model&lt;/div&gt;&lt;div&gt;&amp;nbsp; DM = Derivative Model&lt;/div&gt;FMD =&amp;nbsp;&lt;span style=&quot;&quot;&gt;Frontier Model Division&lt;/span&gt;&lt;div&gt;&amp;nbsp; &amp;nbsp;FT = Fine Tuning&lt;/div&gt;&lt;div&gt;&amp;nbsp; HC = Hazardous Capability&lt;br&gt;&lt;div&gt;&amp;nbsp;LDE = Limited Duty Exemption&lt;span style=&quot;&quot;&gt;&lt;br&gt;&lt;/span&gt;&lt;/div&gt;&lt;div&gt;&lt;span style=&quot;&quot;&gt;NIST =&amp;nbsp;&lt;/span&gt;&lt;span style=&quot;background-color: initial;&quot;&gt;National Institute of&lt;/span&gt;&lt;/div&gt;&lt;div&gt;&lt;span style=&quot;background-color: initial;&quot;&gt;&amp;nbsp; &amp;nbsp; &amp;nbsp; &amp;nbsp; &amp;nbsp; &amp;nbsp; Standards and&lt;/span&gt;&lt;/div&gt;&lt;div&gt;&lt;span style=&quot;background-color: initial;&quot;&gt;&amp;nbsp; &amp;nbsp; &amp;nbsp; &amp;nbsp; &amp;nbsp; &amp;nbsp; Technology&lt;/span&gt;&lt;/div&gt;&lt;div&gt;&lt;span style=&quot;background-color: initial;&quot;&gt;PTM = Posttraining Modifications&lt;/span&gt;&lt;/div&gt;&lt;div&gt;&lt;span style=&quot;background-color: initial;&quot;&gt;SSP = Safety and Security Protocol&lt;br&gt;&lt;/span&gt;&lt;/div&gt;&lt;div&gt;&lt;span style=&quot;background-color: initial;&quot;&gt;&amp;nbsp;&amp;nbsp; TP = Testing Procedure&lt;br&gt;&lt;/span&gt;&lt;/div&gt;&lt;div&gt;&lt;br&gt;&lt;/div&gt;&lt;/div&gt;" style="text;html=1;align=left;verticalAlign=middle;whiteSpace=wrap;rounded=0;" parent="N9-NrV2kkBsD0lLzIItE-1" vertex="1">
          <mxGeometry x="20" y="90" width="200" height="170" as="geometry" />
        </mxCell>
        <mxCell id="N9-NrV2kkBsD0lLzIItE-9" value="5. Ensure SSP implemented as written" style="rounded=1;whiteSpace=wrap;html=1;fontSize=11;glass=0;strokeWidth=1;shadow=0;align=left;spacingLeft=5;" parent="N9-NrV2kkBsD0lLzIItE-1" vertex="1">
          <mxGeometry x="322" y="682" width="230" height="40" as="geometry" />
        </mxCell>
        <mxCell id="N9-NrV2kkBsD0lLzIItE-10" value="6. Copy of SSP to FMD" style="rounded=1;whiteSpace=wrap;html=1;fontSize=11;glass=0;strokeWidth=1;shadow=0;align=left;spacingLeft=5;" parent="N9-NrV2kkBsD0lLzIItE-1" vertex="1">
          <mxGeometry x="322" y="748" width="230" height="40" as="geometry" />
        </mxCell>
        <mxCell id="N9-NrV2kkBsD0lLzIItE-11" value="7. Annual review of SSP, update of needed" style="rounded=1;whiteSpace=wrap;html=1;fontSize=11;glass=0;strokeWidth=1;shadow=0;align=left;spacingLeft=5;" parent="N9-NrV2kkBsD0lLzIItE-1" vertex="1">
          <mxGeometry x="317" y="813" width="240" height="40" as="geometry" />
        </mxCell>
        <mxCell id="N9-NrV2kkBsD0lLzIItE-12" value="8. Modifications of SSP to FMD within 10 days" style="rounded=1;whiteSpace=wrap;html=1;fontSize=11;glass=0;strokeWidth=1;shadow=0;align=left;spacingLeft=5;" parent="N9-NrV2kkBsD0lLzIItE-1" vertex="1">
          <mxGeometry x="302" y="879" width="270" height="40" as="geometry" />
        </mxCell>
        <mxCell id="N9-NrV2kkBsD0lLzIItE-13" value="&lt;font style=&quot;font-size: 11px;&quot; face=&quot;Helvetica&quot;&gt;9. &lt;span id=&quot;docs-internal-guid-1f850465-7fff-1807-af94-3a08874d74d6&quot; style=&quot;color: rgb(0, 0, 0); background-color: transparent; font-weight: 400; font-style: normal; font-variant: normal; text-decoration: none; vertical-align: baseline; white-space: pre-wrap;&quot;&gt;Don&#39;t train CM if &lt;b&gt;unreasonable &lt;/b&gt;risk that an individual, or the CM itself, may be able to use the HC of the CM, or a DM based on it, to cause a CH&lt;/span&gt;&lt;/font&gt;" style="rounded=1;whiteSpace=wrap;html=1;fontSize=11;glass=0;strokeWidth=1;shadow=0;align=left;spacingLeft=5;" parent="N9-NrV2kkBsD0lLzIItE-1" vertex="1">
          <mxGeometry x="182" y="944" width="510" height="60" as="geometry" />
        </mxCell>
        <mxCell id="N9-NrV2kkBsD0lLzIItE-14" value="&lt;font style=&quot;font-size: 11px;&quot; face=&quot;Helvetica&quot;&gt;10. &lt;span style=&quot;color: rgb(0, 0, 0); background-color: transparent; font-weight: 400; font-style: normal; font-variant: normal; text-decoration: none; vertical-align: baseline; white-space: pre-wrap;&quot;&gt;Implement measures &lt;b&gt;reasonably &lt;/b&gt;necessary, including based on FMD, NIST, and standard-setting organizations, to prevent the development or exercise of HC or to manage risks arising from them.&lt;/span&gt;&lt;/font&gt;" style="rounded=1;whiteSpace=wrap;html=1;fontSize=11;glass=0;strokeWidth=1;shadow=0;align=left;spacingLeft=5;" parent="N9-NrV2kkBsD0lLzIItE-1" vertex="1">
          <mxGeometry x="182" y="1030" width="510" height="60" as="geometry" />
        </mxCell>
        <mxCell id="N9-NrV2kkBsD0lLzIItE-15" value="" style="rounded=0;html=1;jettySize=auto;orthogonalLoop=1;fontSize=11;endArrow=block;endFill=0;endSize=8;strokeWidth=1;shadow=0;labelBackgroundColor=none;edgeStyle=orthogonalEdgeStyle;entryX=0.5;entryY=0;entryDx=0;entryDy=0;exitX=0.5;exitY=1;exitDx=0;exitDy=0;" parent="N9-NrV2kkBsD0lLzIItE-1" source="N9-NrV2kkBsD0lLzIItE-10" target="N9-NrV2kkBsD0lLzIItE-11" edge="1">
          <mxGeometry relative="1" as="geometry">
            <mxPoint x="497" y="720" as="targetPoint" />
            <mxPoint x="497" y="690" as="sourcePoint" />
          </mxGeometry>
        </mxCell>
        <mxCell id="N9-NrV2kkBsD0lLzIItE-16" value="" style="rounded=0;html=1;jettySize=auto;orthogonalLoop=1;fontSize=11;endArrow=block;endFill=0;endSize=8;strokeWidth=1;shadow=0;labelBackgroundColor=none;edgeStyle=orthogonalEdgeStyle;entryX=0.5;entryY=0;entryDx=0;entryDy=0;exitX=0.5;exitY=1;exitDx=0;exitDy=0;" parent="N9-NrV2kkBsD0lLzIItE-1" source="N9-NrV2kkBsD0lLzIItE-11" target="N9-NrV2kkBsD0lLzIItE-12" edge="1">
          <mxGeometry relative="1" as="geometry">
            <mxPoint x="507" y="730" as="targetPoint" />
            <mxPoint x="507" y="700" as="sourcePoint" />
          </mxGeometry>
        </mxCell>
        <mxCell id="N9-NrV2kkBsD0lLzIItE-17" value="" style="rounded=0;html=1;jettySize=auto;orthogonalLoop=1;fontSize=11;endArrow=block;endFill=0;endSize=8;strokeWidth=1;shadow=0;labelBackgroundColor=none;edgeStyle=orthogonalEdgeStyle;entryX=0.5;entryY=0;entryDx=0;entryDy=0;exitX=0.5;exitY=1;exitDx=0;exitDy=0;" parent="N9-NrV2kkBsD0lLzIItE-1" source="N9-NrV2kkBsD0lLzIItE-12" target="N9-NrV2kkBsD0lLzIItE-13" edge="1">
          <mxGeometry relative="1" as="geometry">
            <mxPoint x="517" y="740" as="targetPoint" />
            <mxPoint x="517" y="710" as="sourcePoint" />
          </mxGeometry>
        </mxCell>
        <mxCell id="N9-NrV2kkBsD0lLzIItE-18" value="" style="rounded=0;html=1;jettySize=auto;orthogonalLoop=1;fontSize=11;endArrow=block;endFill=0;endSize=8;strokeWidth=1;shadow=0;labelBackgroundColor=none;edgeStyle=orthogonalEdgeStyle;entryX=0.5;entryY=0;entryDx=0;entryDy=0;exitX=0.5;exitY=1;exitDx=0;exitDy=0;" parent="N9-NrV2kkBsD0lLzIItE-1" source="N9-NrV2kkBsD0lLzIItE-13" target="N9-NrV2kkBsD0lLzIItE-14" edge="1">
          <mxGeometry relative="1" as="geometry">
            <mxPoint x="527" y="750" as="targetPoint" />
            <mxPoint x="527" y="720" as="sourcePoint" />
          </mxGeometry>
        </mxCell>
        <mxCell id="N9-NrV2kkBsD0lLzIItE-19" value="" style="rounded=0;html=1;jettySize=auto;orthogonalLoop=1;fontSize=11;endArrow=block;endFill=0;endSize=8;strokeWidth=1;shadow=0;labelBackgroundColor=none;edgeStyle=orthogonalEdgeStyle;entryX=0.5;entryY=0;entryDx=0;entryDy=0;exitX=0.5;exitY=1;exitDx=0;exitDy=0;" parent="N9-NrV2kkBsD0lLzIItE-1" source="N9-NrV2kkBsD0lLzIItE-9" target="N9-NrV2kkBsD0lLzIItE-10" edge="1">
          <mxGeometry relative="1" as="geometry">
            <mxPoint x="447" y="710" as="targetPoint" />
            <mxPoint x="447" y="680" as="sourcePoint" />
          </mxGeometry>
        </mxCell>
        <mxCell id="N9-NrV2kkBsD0lLzIItE-20" value="" style="rounded=0;html=1;jettySize=auto;orthogonalLoop=1;fontSize=11;endArrow=block;endFill=0;endSize=8;strokeWidth=1;shadow=0;labelBackgroundColor=none;edgeStyle=orthogonalEdgeStyle;entryX=0.5;entryY=0;entryDx=0;entryDy=0;exitX=0.5;exitY=1;exitDx=0;exitDy=0;" parent="N9-NrV2kkBsD0lLzIItE-1" source="N9-NrV2kkBsD0lLzIItE-6" target="N9-NrV2kkBsD0lLzIItE-9" edge="1">
          <mxGeometry relative="1" as="geometry">
            <mxPoint x="447" y="758" as="targetPoint" />
            <mxPoint x="447" y="732" as="sourcePoint" />
          </mxGeometry>
        </mxCell>
        <mxCell id="N9-NrV2kkBsD0lLzIItE-21" value="" style="rounded=0;html=1;jettySize=auto;orthogonalLoop=1;fontSize=11;endArrow=block;endFill=0;endSize=8;strokeWidth=1;shadow=0;labelBackgroundColor=none;edgeStyle=orthogonalEdgeStyle;entryX=0.5;entryY=0;entryDx=0;entryDy=0;exitX=0.5;exitY=1;exitDx=0;exitDy=0;" parent="N9-NrV2kkBsD0lLzIItE-1" source="N9-NrV2kkBsD0lLzIItE-7" target="N9-NrV2kkBsD0lLzIItE-6" edge="1">
          <mxGeometry relative="1" as="geometry">
            <mxPoint x="457" y="768" as="targetPoint" />
            <mxPoint x="457" y="742" as="sourcePoint" />
          </mxGeometry>
        </mxCell>
        <mxCell id="N9-NrV2kkBsD0lLzIItE-22" value="" style="rounded=0;html=1;jettySize=auto;orthogonalLoop=1;fontSize=11;endArrow=block;endFill=0;endSize=8;strokeWidth=1;shadow=0;labelBackgroundColor=none;edgeStyle=orthogonalEdgeStyle;entryX=0.5;entryY=0;entryDx=0;entryDy=0;exitX=0.5;exitY=1;exitDx=0;exitDy=0;" parent="N9-NrV2kkBsD0lLzIItE-1" source="N9-NrV2kkBsD0lLzIItE-4" target="N9-NrV2kkBsD0lLzIItE-7" edge="1">
          <mxGeometry relative="1" as="geometry">
            <mxPoint x="612" y="250" as="targetPoint" />
            <mxPoint x="502" y="280" as="sourcePoint" />
          </mxGeometry>
        </mxCell>
        <mxCell id="N9-NrV2kkBsD0lLzIItE-23" value="" style="rounded=0;html=1;jettySize=auto;orthogonalLoop=1;fontSize=11;endArrow=block;endFill=0;endSize=8;strokeWidth=1;shadow=0;labelBackgroundColor=none;edgeStyle=orthogonalEdgeStyle;exitX=0.5;exitY=1;exitDx=0;exitDy=0;entryX=0.5;entryY=0;entryDx=0;entryDy=0;" parent="N9-NrV2kkBsD0lLzIItE-1" source="N9-NrV2kkBsD0lLzIItE-3" target="N9-NrV2kkBsD0lLzIItE-4" edge="1">
          <mxGeometry relative="1" as="geometry">
            <mxPoint x="472" y="210" as="targetPoint" />
            <mxPoint x="457" y="286" as="sourcePoint" />
          </mxGeometry>
        </mxCell>
      </root>
    </mxGraphModel>
  </diagram>
  <diagram id="5EmOrbvYEg2L4OPjrKG7" name="22603(c)">
    <mxGraphModel dx="1502" dy="522" grid="1" gridSize="10" guides="1" tooltips="1" connect="1" arrows="1" fold="1" page="1" pageScale="1" pageWidth="850" pageHeight="1100" math="1" shadow="0">
      <root>
        <mxCell id="0" />
        <mxCell id="1" parent="0" />
        <mxCell id="WG0IjHgV-sonbd_nTBJX-1" value="(c) Does Limited Duty Exemption Apply?&lt;div&gt;&lt;b&gt;AFTER &lt;/b&gt;training &lt;font color=&quot;#ff0000&quot;&gt;Covered Model&lt;/font&gt; ...&lt;/div&gt;" style="text;strokeColor=none;align=center;fillColor=none;html=1;verticalAlign=middle;whiteSpace=wrap;rounded=0;" parent="1" vertex="1">
          <mxGeometry x="245" y="20" width="230" height="30" as="geometry" />
        </mxCell>
        <mxCell id="WG0IjHgV-sonbd_nTBJX-2" value="" style="rounded=0;html=1;jettySize=auto;orthogonalLoop=1;fontSize=11;endArrow=block;endFill=0;endSize=8;strokeWidth=1;shadow=0;labelBackgroundColor=none;edgeStyle=orthogonalEdgeStyle;entryX=0.5;entryY=0;entryDx=0;entryDy=0;" parent="1" source="WG0IjHgV-sonbd_nTBJX-3" target="WG0IjHgV-sonbd_nTBJX-6" edge="1">
          <mxGeometry relative="1" as="geometry">
            <mxPoint x="360" y="180" as="targetPoint" />
            <Array as="points" />
          </mxGeometry>
        </mxCell>
        <mxCell id="WG0IjHgV-sonbd_nTBJX-3" value="CM not subject to (pretraining) LDE under (a)&amp;nbsp;&lt;div&gt;&lt;br&gt;&lt;/div&gt;" style="rounded=1;whiteSpace=wrap;html=1;fontSize=12;glass=0;strokeWidth=1;shadow=0;" parent="1" vertex="1">
          <mxGeometry x="220" y="90" width="280" height="60" as="geometry" />
        </mxCell>
        <mxCell id="WG0IjHgV-sonbd_nTBJX-4" value="Yes" style="rounded=0;html=1;jettySize=auto;orthogonalLoop=1;fontSize=11;endArrow=block;endFill=0;endSize=8;strokeWidth=1;shadow=0;labelBackgroundColor=none;edgeStyle=orthogonalEdgeStyle;" parent="1" source="WG0IjHgV-sonbd_nTBJX-6" edge="1">
          <mxGeometry x="-0.7403" y="20" relative="1" as="geometry">
            <mxPoint as="offset" />
            <mxPoint x="360" y="340" as="targetPoint" />
          </mxGeometry>
        </mxCell>
        <mxCell id="WG0IjHgV-sonbd_nTBJX-5" value="No" style="edgeStyle=orthogonalEdgeStyle;rounded=0;html=1;jettySize=auto;orthogonalLoop=1;fontSize=11;endArrow=block;endFill=0;endSize=8;strokeWidth=1;shadow=0;labelBackgroundColor=none;" parent="1" source="WG0IjHgV-sonbd_nTBJX-6" target="WG0IjHgV-sonbd_nTBJX-7" edge="1">
          <mxGeometry y="10" relative="1" as="geometry">
            <mxPoint as="offset" />
          </mxGeometry>
        </mxCell>
        <mxCell id="WG0IjHgV-sonbd_nTBJX-6" value="&lt;span style=&quot;font-size: 11px;&quot;&gt;Pass&lt;/span&gt;&lt;div&gt;&lt;span style=&quot;font-size: 11px;&quot;&gt;model developer&lt;/span&gt;&lt;/div&gt;&lt;div&gt;&lt;span style=&quot;font-size: 11px;&quot;&gt;created capability testing to&lt;/span&gt;&lt;/div&gt;&lt;div&gt;&lt;span style=&quot;font-size: 11px;&quot;&gt;determnine if LDE&lt;/span&gt;&lt;/div&gt;&lt;div&gt;&lt;span style=&quot;font-size: 11px;&quot;&gt;applies&lt;/span&gt;&lt;/div&gt;" style="rhombus;whiteSpace=wrap;html=1;shadow=0;fontFamily=Helvetica;fontSize=12;align=center;strokeWidth=1;spacing=6;spacingTop=-6;" parent="1" vertex="1">
          <mxGeometry x="250" y="185" width="220" height="110" as="geometry" />
        </mxCell>
        <mxCell id="WG0IjHgV-sonbd_nTBJX-7" value="No LDE" style="rounded=1;whiteSpace=wrap;html=1;fontSize=12;glass=0;strokeWidth=1;shadow=0;" parent="1" vertex="1">
          <mxGeometry x="540" y="220" width="120" height="40" as="geometry" />
        </mxCell>
        <mxCell id="WG0IjHgV-sonbd_nTBJX-14" value="Model developer &lt;b&gt;shall &lt;/b&gt;make following determinations" style="text;strokeColor=none;align=center;fillColor=none;html=1;verticalAlign=middle;whiteSpace=wrap;rounded=0;" parent="1" vertex="1">
          <mxGeometry x="220" y="60" width="295" height="30" as="geometry" />
        </mxCell>
        <mxCell id="WG0IjHgV-sonbd_nTBJX-21" value="Submit to FMD:&lt;div&gt;1. basis for determnination of LDE&lt;/div&gt;&lt;div&gt;2.&amp;nbsp;&lt;span style=&quot;background-color: initial;&quot;&gt;&amp;nbsp;&lt;/span&gt;&lt;span style=&quot;background-color: initial;&quot;&gt;methodology &amp;amp; results of&amp;nbsp;&lt;/span&gt;&lt;span style=&quot;background-color: initial;&quot;&gt;capability testing&lt;/span&gt;&lt;/div&gt;" style="rounded=1;whiteSpace=wrap;html=1;fontSize=12;glass=0;strokeWidth=1;shadow=0;align=left;spacingLeft=13;" parent="1" vertex="1">
          <mxGeometry x="240" y="340" width="260" height="70" as="geometry" />
        </mxCell>
        <mxCell id="15tgGJv5PdGFy3n3ZqZt-1" value="&lt;div&gt;&amp;nbsp; CH = Critical Harm&lt;/div&gt;&lt;div&gt;&amp;nbsp; CM = Covered Model&lt;/div&gt;&lt;div&gt;&amp;nbsp; DM = Derivative Model&lt;/div&gt;FMD =&amp;nbsp;&lt;span style=&quot;&quot;&gt;Frontier Model Division&lt;/span&gt;&lt;div&gt;&amp;nbsp; &amp;nbsp;FT = Fine Tuning&lt;/div&gt;&lt;div&gt;&amp;nbsp; HC = Hazardous Capability&lt;br&gt;&lt;div&gt;&amp;nbsp;LDE = Limited Duty Exemption&lt;span style=&quot;&quot;&gt;&lt;br&gt;&lt;/span&gt;&lt;/div&gt;&lt;div&gt;&lt;span style=&quot;&quot;&gt;NIST =&amp;nbsp;&lt;/span&gt;&lt;span style=&quot;background-color: initial;&quot;&gt;National Institute of&lt;/span&gt;&lt;/div&gt;&lt;div&gt;&lt;span style=&quot;background-color: initial;&quot;&gt;&amp;nbsp; &amp;nbsp; &amp;nbsp; &amp;nbsp; &amp;nbsp; &amp;nbsp; Standards and&lt;/span&gt;&lt;/div&gt;&lt;div&gt;&lt;span style=&quot;background-color: initial;&quot;&gt;&amp;nbsp; &amp;nbsp; &amp;nbsp; &amp;nbsp; &amp;nbsp; &amp;nbsp; Technology&lt;/span&gt;&lt;/div&gt;&lt;div&gt;&lt;span style=&quot;background-color: initial;&quot;&gt;PTM = Posttraining Modifications&lt;/span&gt;&lt;/div&gt;&lt;div&gt;&lt;span style=&quot;background-color: initial;&quot;&gt;SSP = Safety and Security Protocol&lt;br&gt;&lt;/span&gt;&lt;/div&gt;&lt;div&gt;&lt;span style=&quot;background-color: initial;&quot;&gt;&amp;nbsp;&amp;nbsp; TP = Testing Procedure&lt;br&gt;&lt;/span&gt;&lt;/div&gt;&lt;div&gt;&lt;br&gt;&lt;/div&gt;&lt;/div&gt;" style="text;html=1;align=left;verticalAlign=middle;whiteSpace=wrap;rounded=0;" vertex="1" parent="1">
          <mxGeometry x="20" y="90" width="200" height="170" as="geometry" />
        </mxCell>
      </root>
    </mxGraphModel>
  </diagram>
  <diagram id="8sDLDkIWFCVAbJbosgYb" name="22603(d)">
    <mxGraphModel dx="732" dy="521" grid="1" gridSize="10" guides="1" tooltips="1" connect="1" arrows="1" fold="1" page="1" pageScale="1" pageWidth="850" pageHeight="1100" math="1" shadow="0">
      <root>
        <mxCell id="0" />
        <mxCell id="1" parent="0" />
        <mxCell id="rLC8foEk13rcf21ADYCq-1" value="(d) BEFORE&amp;nbsp;&lt;span style=&quot;background-color: initial;&quot;&gt;&amp;nbsp;commerical, public, or widspread use of covered model that is not LDE&lt;/span&gt;" style="text;strokeColor=none;align=center;fillColor=none;html=1;verticalAlign=middle;whiteSpace=wrap;rounded=0;" parent="1" vertex="1">
          <mxGeometry x="292" y="20" width="455" height="30" as="geometry" />
        </mxCell>
        <mxCell id="rLC8foEk13rcf21ADYCq-8" value="Model developer &lt;b&gt;shall:&lt;/b&gt;" style="text;strokeColor=none;align=center;fillColor=none;html=1;verticalAlign=middle;whiteSpace=wrap;rounded=0;" parent="1" vertex="1">
          <mxGeometry x="207" y="50" width="295" height="30" as="geometry" />
        </mxCell>
        <mxCell id="rLC8foEk13rcf21ADYCq-9" value="&lt;div&gt;Implement &lt;b&gt;reasonable &lt;/b&gt;safeguards and requirements informed by training and testing that:&lt;/div&gt;&lt;div&gt;&lt;ol&gt;&lt;li&gt;Prevent an individual from being able to use the HC of the model or a DM to cause a CH&lt;/li&gt;&lt;li&gt;Prevent an individual from being able to use the model to create a DM that is used to cause a CH&lt;/li&gt;&lt;li&gt;Ensure, to the extent &lt;b&gt;reasonably &lt;/b&gt;possible, that the CM’s &lt;br&gt;actions and any resulting CH can be accurately and reliably &lt;br&gt;attributed to it and any user responsible for those actions&lt;br&gt;&lt;/li&gt;&lt;/ol&gt;&lt;/div&gt;" style="rounded=1;whiteSpace=wrap;html=1;fontSize=12;glass=0;strokeWidth=1;shadow=0;align=left;spacingLeft=13;" parent="1" vertex="1">
          <mxGeometry x="284.5" y="90" width="455.5" height="160" as="geometry" />
        </mxCell>
        <mxCell id="rLC8foEk13rcf21ADYCq-10" value="&lt;ol&gt;&lt;li&gt;Provide &lt;b&gt;reasonable &lt;/b&gt;requirements to developers of DM to prevent individual from being able to use DM to cause CH&lt;/li&gt;&lt;li&gt;&lt;font class=&quot;blue_text&quot;&gt;If a developer provides access to DM in form that makes FT possible, provide information that enables determining if they have done FT to meet the &amp;gt;25% FT threshold&lt;/font&gt;&lt;/li&gt;&lt;/ol&gt;" style="rounded=1;whiteSpace=wrap;html=1;fontSize=12;glass=0;strokeWidth=1;shadow=0;align=left;spacingLeft=-19;" parent="1" vertex="1">
          <mxGeometry x="284.5" y="290" width="455.5" height="140" as="geometry" />
        </mxCell>
        <mxCell id="rLC8foEk13rcf21ADYCq-11" value="Refrain from initiating the commercial, public, or widespread use of a CM if there remains an &lt;b&gt;unreasonable &lt;/b&gt;risk that an individual may be able to use the HC of the model, or a DM based on it, to cause a CH" style="rounded=1;whiteSpace=wrap;html=1;fontSize=12;glass=0;strokeWidth=1;shadow=0;align=left;spacingLeft=15;" parent="1" vertex="1">
          <mxGeometry x="284.5" y="470" width="455.5" height="100" as="geometry" />
        </mxCell>
        <mxCell id="rLC8foEk13rcf21ADYCq-12" value="&lt;div&gt;Implement other measures that are &lt;b&gt;reasonably &lt;/b&gt;necessary, including in light of applicable guidance from the FMD, NIST, and standard-setting organizations, to prevent the development or exercise of HC or to manage the risks arising from them.&lt;br&gt;&lt;/div&gt;" style="rounded=1;whiteSpace=wrap;html=1;fontSize=12;glass=0;strokeWidth=1;shadow=0;align=left;spacingLeft=15;" parent="1" vertex="1">
          <mxGeometry x="284.5" y="610" width="455.5" height="120" as="geometry" />
        </mxCell>
        <mxCell id="JrbGrrCC9ZH_5CJMhI8y-1" value="" style="rounded=0;html=1;jettySize=auto;orthogonalLoop=1;fontSize=11;endArrow=block;endFill=0;endSize=8;strokeWidth=1;shadow=0;labelBackgroundColor=none;edgeStyle=orthogonalEdgeStyle;exitX=0.5;exitY=1;exitDx=0;exitDy=0;entryX=0.5;entryY=0;entryDx=0;entryDy=0;" parent="1" source="rLC8foEk13rcf21ADYCq-9" target="rLC8foEk13rcf21ADYCq-10" edge="1">
          <mxGeometry x="-0.7403" y="20" relative="1" as="geometry">
            <mxPoint as="offset" />
            <mxPoint x="407" y="245" as="sourcePoint" />
            <mxPoint x="407" y="290" as="targetPoint" />
          </mxGeometry>
        </mxCell>
        <mxCell id="JrbGrrCC9ZH_5CJMhI8y-2" value="" style="rounded=0;html=1;jettySize=auto;orthogonalLoop=1;fontSize=11;endArrow=block;endFill=0;endSize=8;strokeWidth=1;shadow=0;labelBackgroundColor=none;edgeStyle=orthogonalEdgeStyle;exitX=0.5;exitY=1;exitDx=0;exitDy=0;" parent="1" source="rLC8foEk13rcf21ADYCq-10" target="rLC8foEk13rcf21ADYCq-11" edge="1">
          <mxGeometry x="-0.7403" y="20" relative="1" as="geometry">
            <mxPoint as="offset" />
            <mxPoint x="417" y="255" as="sourcePoint" />
            <mxPoint x="417" y="300" as="targetPoint" />
          </mxGeometry>
        </mxCell>
        <mxCell id="JrbGrrCC9ZH_5CJMhI8y-3" value="" style="rounded=0;html=1;jettySize=auto;orthogonalLoop=1;fontSize=11;endArrow=block;endFill=0;endSize=8;strokeWidth=1;shadow=0;labelBackgroundColor=none;edgeStyle=orthogonalEdgeStyle;exitX=0.5;exitY=1;exitDx=0;exitDy=0;entryX=0.5;entryY=0;entryDx=0;entryDy=0;" parent="1" source="rLC8foEk13rcf21ADYCq-11" target="rLC8foEk13rcf21ADYCq-12" edge="1">
          <mxGeometry x="-0.7403" y="20" relative="1" as="geometry">
            <mxPoint as="offset" />
            <mxPoint x="427" y="265" as="sourcePoint" />
            <mxPoint x="427" y="310" as="targetPoint" />
          </mxGeometry>
        </mxCell>
        <mxCell id="iVBP1i--6-eSiPjhXe7i-1" value="&lt;div&gt;&amp;nbsp; CH = Critical Harm&lt;/div&gt;&lt;div&gt;&amp;nbsp; CM = Covered Model&lt;/div&gt;&lt;div&gt;&amp;nbsp; DM = Derivative Model&lt;/div&gt;FMD =&amp;nbsp;&lt;span style=&quot;&quot;&gt;Frontier Model Division&lt;/span&gt;&lt;div&gt;&amp;nbsp; &amp;nbsp;FT = Fine Tuning&lt;/div&gt;&lt;div&gt;&amp;nbsp; HC = Hazardous Capability&lt;br&gt;&lt;div&gt;&amp;nbsp;LDE = Limited Duty Exemption&lt;span style=&quot;&quot;&gt;&lt;br&gt;&lt;/span&gt;&lt;/div&gt;&lt;div&gt;&lt;span style=&quot;&quot;&gt;NIST =&amp;nbsp;&lt;/span&gt;&lt;span style=&quot;background-color: initial;&quot;&gt;National Institute of&lt;/span&gt;&lt;/div&gt;&lt;div&gt;&lt;span style=&quot;background-color: initial;&quot;&gt;&amp;nbsp; &amp;nbsp; &amp;nbsp; &amp;nbsp; &amp;nbsp; &amp;nbsp; Standards and&lt;/span&gt;&lt;/div&gt;&lt;div&gt;&lt;span style=&quot;background-color: initial;&quot;&gt;&amp;nbsp; &amp;nbsp; &amp;nbsp; &amp;nbsp; &amp;nbsp; &amp;nbsp; Technology&lt;/span&gt;&lt;/div&gt;&lt;div&gt;&lt;span style=&quot;background-color: initial;&quot;&gt;PTM = Posttraining Modifications&lt;/span&gt;&lt;/div&gt;&lt;div&gt;&lt;span style=&quot;background-color: initial;&quot;&gt;SSP = Safety and Security Protocol&lt;br&gt;&lt;/span&gt;&lt;/div&gt;&lt;div&gt;&lt;span style=&quot;background-color: initial;&quot;&gt;&amp;nbsp;&amp;nbsp; TP = Testing Procedure&lt;br&gt;&lt;/span&gt;&lt;/div&gt;&lt;div&gt;&lt;br&gt;&lt;/div&gt;&lt;/div&gt;" style="text;html=1;align=left;verticalAlign=middle;whiteSpace=wrap;rounded=0;" vertex="1" parent="1">
          <mxGeometry x="20" y="90" width="200" height="170" as="geometry" />
        </mxCell>
      </root>
    </mxGraphModel>
  </diagram>
</mxfile>
